<svg xmlns="http://www.w3.org/2000/svg" viewBox="0 0 506.84 407.8431"><defs><style>.a,.b,.c,.d,.e,.f,.g,.h,.i{fill:#40b8a2;}.a,.g,.h,.i{fill-rule:evenodd;}.c{opacity:0.7;}.d,.g{opacity:0.5;}.e,.i{opacity:0.25;}.f,.h{opacity:0.1;}</style></defs><title>Green</title><path class="a" d="M148.205,464.04845a5.62505,5.62505,0,1,0-5.625-5.625A5.63581,5.63581,0,0,0,148.205,464.04845Z" transform="translate(-142.58 -102.07845)"/><circle class="b" cx="188.44933" cy="473.20382" r="11.30689" transform="translate(-421.9901 169.77354) rotate(-45)"/><path class="a" d="M243.893,499.35965a17.625,17.625,0,1,0-17.625-17.6252A17.65917,17.65917,0,0,0,243.893,499.35965Z" transform="translate(-142.58 -102.07845)"/><path class="a" d="M310.8927,497.98425a23.75005,23.75005,0,1,0-23.7501-23.7497A23.796,23.796,0,0,0,310.8927,497.98425Z" transform="translate(-142.58 -102.07845)"/><circle class="b" cx="391.79838" cy="446.14087" r="29.90573" transform="translate(-215.89542 -25.01318) rotate(-10.27799)"/><path class="a" d="M394.2971,509.92155a5.9689,5.9689,0,1,0-5.9687-5.9692A5.98063,5.98063,0,0,0,394.2971,509.92155Z" transform="translate(-142.58 -102.07845)"/><path class="a" d="M435.4221,503.85885a12.0311,12.0311,0,1,0-12.0311-12.0314A12.05466,12.05466,0,0,0,435.4221,503.85885Z" transform="translate(-142.58 -102.07845)"/><circle class="b" cx="485.35863" cy="466.29637" r="18.18768" transform="translate(-236.72893 21.90769) rotate(-13.28249)"/><circle class="c" cx="466.23322" cy="402.26477" r="23.71909" transform="translate(-290.4676 345.41885) rotate(-45)"/><circle class="d" cx="515.20215" cy="356.0463" r="17.87508" transform="translate(-243.44354 366.50803) rotate(-45)"/><circle class="e" cx="544.54603" cy="309.14022" r="12.34408" transform="translate(-24.0158 666.01443) rotate(-76.71743)"/><circle class="f" cx="417.3097" cy="166.0617" r="5.5624"/><path class="g" d="M631.4492,222.92505a17.9707,17.9707,0,1,1,17.9708-17.9708A17.97118,17.97118,0,0,1,631.4492,222.92505Z" transform="translate(-142.58 -102.07845)"/><path class="h" d="M616.0797,113.35235a5.637,5.637,0,1,1,5.637-5.637A5.63721,5.63721,0,0,1,616.0797,113.35235Z" transform="translate(-142.58 -102.07845)"/><path class="i" d="M627.0132,160.51465a11.6562,11.6562,0,1,1,11.6561-11.6561A11.65651,11.65651,0,0,1,627.0132,160.51465Z" transform="translate(-142.58 -102.07845)"/><circle class="c" cx="618.21628" cy="271.4667" r="24.0779" transform="translate(-184.6162 310.64052) rotate(-35.78253)"/><path class="a" d="M583.4192,380.38955a29.87515,29.87515,0,1,0-29.8752-29.8754A29.93307,29.93307,0,0,0,583.4192,380.38955Z" transform="translate(-142.58 -102.07845)"/><circle class="b" cx="535.09108" cy="420.71697" r="24.07801" transform="translate(-283.34728 399.51323) rotate(-45)"/></svg>