<svg xmlns="http://www.w3.org/2000/svg" width="30" height="30" viewBox="0 0 30 30"><defs><style>.a{fill:#586879;}.b,.d{fill:none;}.b{stroke:#586879;stroke-width:2px;}.c{stroke:none;}</style></defs><g transform="translate(-732 -5346)"><g transform="translate(739.382 5353.382)"><path class="a" d="M10.928,0H4.967A4.968,4.968,0,0,0,0,4.967v5.961A4.968,4.968,0,0,0,4.967,15.9h5.961A4.968,4.968,0,0,0,15.9,10.928V4.967A4.968,4.968,0,0,0,10.928,0Zm3.477,10.928a3.481,3.481,0,0,1-3.477,3.477H4.967A3.481,3.481,0,0,1,1.49,10.928V4.967A3.481,3.481,0,0,1,4.967,1.49h5.961a3.481,3.481,0,0,1,3.477,3.477Z"/><g transform="translate(3.974 3.974)"><path class="a" d="M131.974,128a3.974,3.974,0,1,0,3.974,3.974A3.974,3.974,0,0,0,131.974,128Zm0,6.458a2.484,2.484,0,1,1,2.484-2.484A2.487,2.487,0,0,1,131.974,134.458Z" transform="translate(-128 -128)"/></g><g transform="translate(11.69 3.146)"><ellipse class="a" cx="0.53" cy="0.53" rx="0.53" ry="0.53"/></g></g><g class="b" transform="translate(732 5346)"><circle class="c" cx="15" cy="15" r="15"/><circle class="d" cx="15" cy="15" r="14"/></g></g></svg>