<svg xmlns="http://www.w3.org/2000/svg" xmlns:xlink="http://www.w3.org/1999/xlink" width="30" height="30" viewBox="0 0 30 30"><defs><style>.a,.d{fill:none;}.b{clip-path:url(#a);}.c{fill:#586879;}.d{stroke:#586879;stroke-width:2px;}.e{stroke:none;}</style><clipPath id="a"><rect class="a" width="6.19" height="12.004"/></clipPath></defs><g transform="translate(-659 -5346)"><g class="b" transform="translate(671.12 5354.99)"><path class="c" d="M-2.32-2h2.2V-7.365H1.6L1.877-9.5H-.116v-1.477a1.2,1.2,0,0,1,.188-.75,1.089,1.089,0,0,1,.868-.281H2.065v-1.9A11.613,11.613,0,0,0,.424-14a2.718,2.718,0,0,0-1.993.739,2.78,2.78,0,0,0-.75,2.075V-9.5H-4.125v2.134H-2.32Z" transform="translate(4.125 14)"/></g><g class="d" transform="translate(659 5346)"><circle class="e" cx="15" cy="15" r="15"/><circle class="a" cx="15" cy="15" r="14"/></g></g></svg>