<svg xmlns="http://www.w3.org/2000/svg" width="91.412" height="91.414" viewBox="0 0 91.412 91.414"><defs><style>.a{fill:#81bfe7;}</style></defs><path class="a" d="M306.427,226.074a50.906,50.906,0,0,0-14.375-7.413,52.351,52.351,0,0,0-9.241-2.354c-.54-.08-3.143-.216-3.143-.216-1.489,3.318-7.575,12.953-11.224,14.843a11.03,11.03,0,0,1-7.287,1.085c-7.779-1.56-14.792-9.411-19.373-15.77a45.693,45.693,0,0,0,72.826,18.277,38.306,38.306,0,0,0-8.185-8.452" transform="translate(-238.847 -154.405)"/><path class="a" d="M285.767,179.877a45.706,45.706,0,0,0-44.419,56.479c2.1,1.768,4.964,4.182,8.433,7,3.62,2.792,8.846,6.417,13.155,6.335,2.272-.308,3.046-.649,4.592-2.988,1.5-2.277,3.611-9.844,6.021-12.38a7.359,7.359,0,0,1,4.834-2.547c4.214-.782,8.427.615,18.271,5.217a42.021,42.021,0,0,1,14.545,11.35,31.656,31.656,0,0,1,5.694,10.694,45.7,45.7,0,0,0-31.128-79.161m13.072,15.443c3.163-.46,6.214,2.15,6.817,5.826s-1.472,7.03-4.633,7.49-6.214-2.151-6.817-5.827,1.472-7.03,4.633-7.488m7.084,36.086c-4.434-.385-10.936-1.054-15.908-7.074a14.256,14.256,0,0,1-2.761-7.645s-27.734-1.058-25.176,9.072c1.734,6.856,6.664,10.983,6.246,10.983.266-.4-5.478-1.39-10.9-9.471a9.034,9.034,0,0,1,.073-8.854,16.132,16.132,0,0,1,7.893-6.287c6.032-2.548,23.478-6.188,26.958-4.582a11.271,11.271,0,0,1,4.623,5.614c.4,1.724-1.228,4.911.038,7.379,1.606,3.138,5.953,5.565,9.72,6.8a44.667,44.667,0,0,0,13.574,2.071,38.59,38.59,0,0,1-14.382,1.99" transform="translate(-240.06 -179.877)"/></svg>