<svg xmlns="http://www.w3.org/2000/svg" xmlns:xlink="http://www.w3.org/1999/xlink" width="30" height="30" viewBox="0 0 30 30"><defs><style>.a,.d{fill:none;}.b{clip-path:url(#a);}.c{fill:#586879;}.d{stroke:#586879;stroke-width:2px;}.e{stroke:none;}</style><clipPath id="a"><rect class="a" width="13.827" height="9.784"/></clipPath></defs><g transform="translate(-798 -5346)"><g class="b" transform="translate(806.275 5356)"><path class="c" d="M10.955,67.393H2.872A2.872,2.872,0,0,0,0,70.265v4.041a2.872,2.872,0,0,0,2.872,2.872h8.083a2.872,2.872,0,0,0,2.872-2.872V70.265A2.872,2.872,0,0,0,10.955,67.393ZM9.013,72.482l-3.781,1.8a.152.152,0,0,1-.217-.137V70.429a.152.152,0,0,1,.22-.135l3.781,1.916A.152.152,0,0,1,9.013,72.482Z" transform="translate(0 -67.393)"/></g><g class="d" transform="translate(798 5346)"><circle class="e" cx="15" cy="15" r="15"/><circle class="a" cx="15" cy="15" r="14"/></g></g></svg>