<svg id="Layer_1" data-name="Layer 1" xmlns="http://www.w3.org/2000/svg" viewBox="0 0 200.03 134.17"><defs><style>.cls-1,.cls-2,.cls-3,.cls-4,.cls-5{fill:#5fc5bf;}.cls-2{opacity:0.2;}.cls-3{opacity:0.4;}.cls-4{opacity:0.6;}.cls-5{opacity:0.8;}.cls-6{fill:#fff;}</style></defs><title>normal-logo</title><path class="cls-1" d="M132.6,22.23a2,2,0,0,0-1.44-2.41,2,2,0,1,0,1.44,2.41Z" transform="translate(-13.37 -17.96)"/><path class="cls-1" d="M119.35,22.63a4.12,4.12,0,1,0-4.64,3.52A4.12,4.12,0,0,0,119.35,22.63Z" transform="translate(-13.37 -17.96)"/><path class="cls-1" d="M102,26.4a6.26,6.26,0,1,0-6.42,6.09A6.26,6.26,0,0,0,102,26.4Z" transform="translate(-13.37 -17.96)"/><path class="cls-1" d="M82.75,36.7a8.39,8.39,0,1,0-7.66,9.07A8.4,8.4,0,0,0,82.75,36.7Z" transform="translate(-13.37 -17.96)"/><path class="cls-1" d="M53,67.41a10.53,10.53,0,1,0-12.33-8.35A10.53,10.53,0,0,0,53,67.41Z" transform="translate(-13.37 -17.96)"/><path class="cls-2" d="M18.11,139.84a2,2,0,1,0-2.44-1.37A2,2,0,0,0,18.11,139.84Z" transform="translate(-13.37 -17.96)"/><path class="cls-3" d="M21.55,121.85a4.11,4.11,0,1,0-3.39,4.74A4.11,4.11,0,0,0,21.55,121.85Z" transform="translate(-13.37 -17.96)"/><path class="cls-4" d="M27.38,102.53a6.25,6.25,0,1,0-5.92,6.58A6.26,6.26,0,0,0,27.38,102.53Z" transform="translate(-13.37 -17.96)"/><path class="cls-5" d="M40.1,81.72a8.39,8.39,0,1,0-8.86,7.9A8.39,8.39,0,0,0,40.1,81.72Z" transform="translate(-13.37 -17.96)"/><path class="cls-1" d="M212.69,61.69a2,2,0,1,0-2.79-.26A2,2,0,0,0,212.69,61.69Z" transform="translate(-13.37 -17.96)"/><path class="cls-1" d="M201.73,54.23a4.12,4.12,0,1,0-5.82.12A4.12,4.12,0,0,0,201.73,54.23Z" transform="translate(-13.37 -17.96)"/><path class="cls-1" d="M185.45,47.06a6.26,6.26,0,1,0-8.77,1.16A6.26,6.26,0,0,0,185.45,47.06Z" transform="translate(-13.37 -17.96)"/><path class="cls-1" d="M163.85,44.1a8.39,8.39,0,1,0-11.52,2.83A8.39,8.39,0,0,0,163.85,44.1Z" transform="translate(-13.37 -17.96)"/><path class="cls-1" d="M121.73,51.45a10.52,10.52,0,1,0-5.07-14A10.53,10.53,0,0,0,121.73,51.45Z" transform="translate(-13.37 -17.96)"/><path class="cls-2" d="M50.93,89.54A2,2,0,1,0,49.76,87,2,2,0,0,0,50.93,89.54Z" transform="translate(-13.37 -17.96)"/><path class="cls-3" d="M64.29,77a4.12,4.12,0,1,0-5.53,1.83A4.12,4.12,0,0,0,64.29,77Z" transform="translate(-13.37 -17.96)"/><path class="cls-4" d="M80.36,64.81a6.25,6.25,0,1,0-8.65,1.84A6.25,6.25,0,0,0,80.36,64.81Z" transform="translate(-13.37 -17.96)"/><path class="cls-5" d="M102.88,55.45a8.39,8.39,0,1,0-11.81,1.18A8.4,8.4,0,0,0,102.88,55.45Z" transform="translate(-13.37 -17.96)"/><path class="cls-6" d="M85.88,131H86a2.36,2.36,0,0,0,2.11-1.32L109.4,85h-5.46l-18,38.07L67.83,85H62.36l21.39,44.68A2.37,2.37,0,0,0,85.88,131Z" transform="translate(-13.37 -17.96)"/><rect class="cls-6" x="101.48" y="67.04" width="4.86" height="46.06"/><path class="cls-6" d="M148.54,131h.15a2.35,2.35,0,0,0,2.11-1.32L172.06,85H166.6l-18,38.07L130.49,85H125l21.39,44.68A2.35,2.35,0,0,0,148.54,131Z" transform="translate(-13.37 -17.96)"/><path class="cls-6" d="M163.19,131.06l4.69-9.9H194.6l4.69,9.9h5.47L183.43,86.38a2.35,2.35,0,0,0-2.12-1.33h-.15a2.35,2.35,0,0,0-2.11,1.32l-21.33,44.69ZM181.24,93l11,23.31H170.18Z" transform="translate(-13.37 -17.96)"/><path class="cls-1" d="M88.89,139.84a4,4,0,0,0-2.1.56,3.12,3.12,0,0,0-.93.82l0-1.2H84.21v.19c0,1,.08,1.76.08,2.23v9.68h1.58v-4.66a3,3,0,0,0,.92.73,4.25,4.25,0,0,0,2.07.5,4,4,0,0,0,3-1.24,4.57,4.57,0,0,0,1.14-3.2,4.48,4.48,0,0,0-1.14-3.18A3.91,3.91,0,0,0,88.89,139.84Zm2.54,4.43a3.49,3.49,0,0,1-.71,2.3,2.41,2.41,0,0,1-2,.83,2.81,2.81,0,0,1-2.12-.8,3.12,3.12,0,0,1-.77-2.22,3.51,3.51,0,0,1,.78-2.37,2.66,2.66,0,0,1,2.12-.89,2.41,2.41,0,0,1,2,.84A3.54,3.54,0,0,1,91.43,144.27Z" transform="translate(-13.37 -17.96)"/><path class="cls-1" d="M100.08,139.81a4.37,4.37,0,0,0-2,.47,3.62,3.62,0,0,0-1,.79v-4.8H95.43v12.22H97v-5.12a2,2,0,0,1,.88-1.56,3.3,3.3,0,0,1,2.08-.71,1.83,1.83,0,0,1,1.46.51,2.55,2.55,0,0,1,.45,1.67v5.21h1.58v-5.32a3.23,3.23,0,0,0-.95-2.49A3.48,3.48,0,0,0,100.08,139.81Z" transform="translate(-13.37 -17.96)"/><path class="cls-1" d="M109.68,146.63,107,140h-1.69l3.6,8.35-.15.35h0a3.48,3.48,0,0,1-2.56,2l-.23.06.66,1.1.12,0a4.51,4.51,0,0,0,2.23-1.09,5.38,5.38,0,0,0,1.35-2L114,140h-1.61Z" transform="translate(-13.37 -17.96)"/><path class="cls-1" d="M121.14,144.46a3.67,3.67,0,0,0-.76-.46,9.58,9.58,0,0,0-1-.37l-1-.28-.33-.11a3.2,3.2,0,0,1-1.09-.47.75.75,0,0,1-.23-.63.81.81,0,0,1,.43-.75h0a3,3,0,0,1,1.47-.29,5.13,5.13,0,0,1,2.26.52l.17.09.5-1.13-.14-.09a5.66,5.66,0,0,0-2.88-.68,6.5,6.5,0,0,0-1.3.13,3.84,3.84,0,0,0-1.06.41,2,2,0,0,0-.76.75,2.28,2.28,0,0,0-.26,1.09,1.94,1.94,0,0,0,.59,1.51,4.58,4.58,0,0,0,1.69.84l1.27.36a4.39,4.39,0,0,1,1.32.56.83.83,0,0,1,.31.72c0,.29,0,1.18-1.86,1.18a4.83,4.83,0,0,1-2.65-.83l-.18-.12-.53,1.18.12.09a4.24,4.24,0,0,0,.44.27c.17.09.39.19.68.31a4.59,4.59,0,0,0,1,.29,6.58,6.58,0,0,0,1.19.11,5.26,5.26,0,0,0,1.23-.14,3.35,3.35,0,0,0,1-.43,2.13,2.13,0,0,0,.77-.83,2.52,2.52,0,0,0,.27-1.19,2.36,2.36,0,0,0-.17-.92A1.66,1.66,0,0,0,121.14,144.46Z" transform="translate(-13.37 -17.96)"/><rect class="cls-1" x="110.86" y="122.06" width="1.58" height="8.48"/><rect class="cls-1" x="110.87" y="118.67" width="1.57" height="1.47"/><path class="cls-1" d="M132.93,139.81A4.76,4.76,0,0,0,129.5,141a4.32,4.32,0,0,0-1.28,3.24,4.25,4.25,0,0,0,1.27,3.19,5.49,5.49,0,0,0,6.85,0,4.24,4.24,0,0,0,1.26-3.19,4.37,4.37,0,0,0-1.25-3.24A4.71,4.71,0,0,0,132.93,139.81Zm0,7.57a3,3,0,0,1-2.26-.84,3.18,3.18,0,0,1-.8-2.27,3.29,3.29,0,0,1,.8-2.32,2.94,2.94,0,0,1,2.26-.85,2.9,2.9,0,0,1,2.25.85,3.29,3.29,0,0,1,.8,2.32,3.21,3.21,0,0,1-.79,2.27A3,3,0,0,1,132.92,147.38Z" transform="translate(-13.37 -17.96)"/><path class="cls-1" d="M143.34,147.21a2.24,2.24,0,0,1-.56-.1.91.91,0,0,1-.34-.15.64.64,0,0,1-.17-.25,1.76,1.76,0,0,1-.1-.41c0-.16,0-.37,0-.63v-4.54h2.19V140h-2.19v-2.59l-1.56.43V140h-1.73v1.11h1.71v4.49a6.47,6.47,0,0,0,0,.83,3.43,3.43,0,0,0,.14.68,1.45,1.45,0,0,0,.34.6,2.06,2.06,0,0,0,.56.4,2.79,2.79,0,0,0,.83.27,8.8,8.8,0,0,0,1.14.09h.75v-1.27h-.18C143.84,147.23,143.56,147.23,143.34,147.21Z" transform="translate(-13.37 -17.96)"/><path class="cls-1" d="M151.39,139.81a4.37,4.37,0,0,0-2,.47,3.62,3.62,0,0,0-1,.79v-4.8h-1.58v12.22h1.58v-5.12a2,2,0,0,1,.89-1.56,3.27,3.27,0,0,1,2.07-.71,1.86,1.86,0,0,1,1.47.51,2.61,2.61,0,0,1,.44,1.67v5.21h1.58v-5.32a3.23,3.23,0,0,0-1-2.49A3.48,3.48,0,0,0,151.39,139.81Z" transform="translate(-13.37 -17.96)"/><path class="cls-1" d="M161.59,139.81a4.24,4.24,0,0,0-4.49,4.48,4.14,4.14,0,0,0,1.29,3.18,4.84,4.84,0,0,0,3.42,1.19,6.44,6.44,0,0,0,1.86-.27,5,5,0,0,0,1.58-.78l.12-.09-.56-1.14-.17.13a4.69,4.69,0,0,1-2.78.87,3.21,3.21,0,0,1-2.29-.8,2.81,2.81,0,0,1-.85-2h6.9v-.17a4,4,0,0,0,0-.44,4.21,4.21,0,0,0-1.08-3A3.92,3.92,0,0,0,161.59,139.81Zm-2.8,3.61a2.78,2.78,0,0,1,.88-1.66,2.83,2.83,0,0,1,1.94-.68,2.49,2.49,0,0,1,1.82.67,2.68,2.68,0,0,1,.75,1.67Z" transform="translate(-13.37 -17.96)"/><path class="cls-1" d="M172,139.84a3.08,3.08,0,0,0-1.59.41,2.48,2.48,0,0,0-.73.68l0-.91H168l.08,1.32c0,.32,0,.61,0,.85v6.3h1.58v-4.64a2.85,2.85,0,0,1,.62-2,2.58,2.58,0,0,1,2.5-.56l.22.05,0-1.38-.15,0A4.7,4.7,0,0,0,172,139.84Z" transform="translate(-13.37 -17.96)"/><path class="cls-1" d="M181.65,141a3.22,3.22,0,0,0-.92-.74,3.77,3.77,0,0,0-1.91-.49,4.26,4.26,0,0,0-3.18,1.24,4.37,4.37,0,0,0-1.19,3.17,5,5,0,0,0,.51,2.27,3.87,3.87,0,0,0,1.52,1.59,4.49,4.49,0,0,0,2.32.58,3.8,3.8,0,0,0,1.94-.48,3.38,3.38,0,0,0,.9-.78v1.09h1.58V140h-1.57Zm-.71.89a3.37,3.37,0,0,1,.73,2.26,3.54,3.54,0,0,1-.72,2.34,2.45,2.45,0,0,1-2,.85,2.67,2.67,0,0,1-2.12-.87,3.4,3.4,0,0,1-.76-2.32,3.23,3.23,0,0,1,.76-2.25,2.69,2.69,0,0,1,2.11-.84A2.52,2.52,0,0,1,180.94,141.93Z" transform="translate(-13.37 -17.96)"/><path class="cls-1" d="M191.05,139.84a4.06,4.06,0,0,0-2.11.56,3.38,3.38,0,0,0-.93.82l0-1.2h-1.62v.19c.05,1,.07,1.77.07,2.23v9.68H188v-4.66a3.1,3.1,0,0,0,.92.73,4.32,4.32,0,0,0,2.08.5,4,4,0,0,0,3-1.24,4.58,4.58,0,0,0,1.13-3.2,4.51,4.51,0,0,0-1.13-3.18A3.91,3.91,0,0,0,191.05,139.84Zm2.54,4.43a3.49,3.49,0,0,1-.71,2.3,2.42,2.42,0,0,1-2,.83,2.76,2.76,0,0,1-2.12-.8,3.12,3.12,0,0,1-.77-2.22,3.51,3.51,0,0,1,.78-2.37,2.63,2.63,0,0,1,2.12-.89,2.41,2.41,0,0,1,2,.84A3.54,3.54,0,0,1,193.59,144.27Z" transform="translate(-13.37 -17.96)"/><path class="cls-1" d="M203.44,140l-2.67,6.61-2.7-6.61h-1.69l3.6,8.35-.15.35a3.49,3.49,0,0,1-2.55,2l-.24.06.66,1.1.12,0a4.51,4.51,0,0,0,2.23-1.09,5.38,5.38,0,0,0,1.35-2l3.66-8.78Z" transform="translate(-13.37 -17.96)"/></svg>