<svg xmlns="http://www.w3.org/2000/svg" width="90.576" height="90.577" viewBox="0 0 90.576 90.577"><defs><style>.a{fill:#40b8a2;}</style></defs><path class="a" d="M245.58,213.277c-2.372,1.1-6.117,11.389-10.724,14.555-2.379,1.636-9.215,2.581-16.454,2.946a42.655,42.655,0,0,0,7.022,1.74c5.621.69,15.167,1.591,15.2,4.2.007.387-1.736.329-1.416.37-.027,0-2.684.1-2.688.1-7.2.5-22.316-2.262-27.232-2.893-3.722-.48-9.744-.288-12.474-3.1-.512-.531-.98-1.931-.933-3.983a4.661,4.661,0,0,1-.081-.48.335.335,0,0,1-.014-.161,4.478,4.478,0,0,1,.956-3.173s.509-2.879,10.342-2.316a55.7,55.7,0,0,0,19.934-2.2c3.195-1.007,13.095-15.291,18.219-14.192,5.659,1.212,21.126,19.4,23.773,24.417.09-1.167.149-2.345.149-3.537a45.279,45.279,0,1,0-.249,4.755c-3.163-1.1-20.605-18.3-23.334-17.037m-58.667,17.529c-3.358-.127-5.978-2.579-5.855-5.476s2.946-5.143,6.3-5.016,5.979,2.579,5.855,5.476-2.944,5.142-6.3,5.016" transform="translate(-178.587 -180.271)"/></svg>