<svg xmlns="http://www.w3.org/2000/svg" width="90.968" height="90.969" viewBox="0 0 90.968 90.969"><defs><style>.a{fill:#ebd86f;}</style></defs><path class="a" d="M162.615,180.271A45.485,45.485,0,1,0,208.1,225.756a45.484,45.484,0,0,0-45.485-45.485m20.958,30.312.33-.981L196.319,236.4s-2.788,1.77-19.673-3.135c-1.9-.55-3.628-11.384-3.628-11.384,2.3-.523,8.468-6.538,10.322-10.714.077-.174.155-.37.232-.579M169.826,193.3c2.567-1.236,5.559.654,6.686,4.227s-.039,7.47-2.606,8.708-5.556-.654-6.685-4.225.041-7.471,2.6-8.71M145.25,222.809c2.63-4.009,8.139-3.525,11.884-4.013,5.649-.734,11.685-2.025,16.21-6.957,2.168-2.364,3.91-7.877,6.766-7.863,3.8.019,2.594,4.122,1.635,6.475-1.7,4.162-5.005,7.211-8.056,9.563-4.213,3.248-16.391,3.551-23.915,3.769,0,0-5.571.915-5.595.918.324-.08.86-1.575,1.07-1.892m-9.241-.787a7.3,7.3,0,0,1,6.089,6.921,5.051,5.051,0,0,1-5.951,5.211,7.3,7.3,0,0,1-6.09-6.92,5.054,5.054,0,0,1,5.952-5.213m45.115,20.611c-14.378.027-28.942-8.657-30.63-8.238-2.258.562-2.1,16.927-15.519,9.868-4.529-2.381-12.024-8.453-10.041-17.285,0,0,2.693,5.63,6.731,8.7,16.73,12.722,6.623-10.98,20.429-10.508,4.256.146,7.124,2.585,10.779,4.721,6.734,3.934,23.968,8.359,37.753,10.563-4.305,2.064-13.72,2.166-19.5,2.177" transform="translate(-117.132 -180.271)"/></svg>