<svg xmlns="http://www.w3.org/2000/svg" xmlns:xlink="http://www.w3.org/1999/xlink" width="22.036" height="25.906" viewBox="0 0 22.036 25.906"><defs><style>.a{fill:none;}.b{clip-path:url(#a);}.c{fill:#003b5c;}</style><clipPath id="a"><rect class="a" width="22.036" height="25.906"/></clipPath></defs><g class="b"><path class="c" d="M142.587,13.959h.172a4.95,4.95,0,0,0,3.782-1.636c2.065-2.328,1.722-6.32,1.685-6.7-.134-2.859-1.486-4.227-2.6-4.866A5.965,5.965,0,0,0,142.737,0h-.091a5.974,5.974,0,0,0-2.886.735c-1.127.638-2.5,2.006-2.634,4.887-.038.381-.381,4.372,1.685,6.7A4.931,4.931,0,0,0,142.587,13.959Zm-4.029-8.2c0-.016.005-.032.005-.043.177-3.847,2.908-4.26,4.077-4.26h.064c1.449.032,3.911.622,4.077,4.26a.105.105,0,0,0,.005.043c.005.038.381,3.686-1.325,5.606a3.516,3.516,0,0,1-2.763,1.148h-.054a3.5,3.5,0,0,1-2.757-1.148C138.188,9.453,138.553,5.789,138.558,5.756Z" transform="translate(-131.663)"/><path class="c" d="M58.107,265.916V265.9c0-.043-.005-.086-.005-.134-.032-1.062-.1-3.546-2.43-4.34l-.054-.016a15.477,15.477,0,0,1-4.453-2.028.724.724,0,0,0-.832,1.186,16.709,16.709,0,0,0,4.9,2.237c1.25.445,1.389,1.781,1.427,3a1.077,1.077,0,0,0,.005.134,9.739,9.739,0,0,1-.113,1.658,19.743,19.743,0,0,1-9.458,2.2,19.857,19.857,0,0,1-9.463-2.2,9.218,9.218,0,0,1-.113-1.658c0-.043.005-.086.005-.134.038-1.223.177-2.559,1.427-3a16.865,16.865,0,0,0,4.9-2.237.724.724,0,1,0-.832-1.186,15.311,15.311,0,0,1-4.453,2.028c-.021.005-.038.011-.054.016-2.328.8-2.4,3.283-2.43,4.34a1.077,1.077,0,0,1-.005.134v.016a8.227,8.227,0,0,0,.274,2.43.688.688,0,0,0,.279.338A20.291,20.291,0,0,0,47.1,271.243a20.353,20.353,0,0,0,10.472-2.564.718.718,0,0,0,.279-.338A8.631,8.631,0,0,0,58.107,265.916Z" transform="translate(-36.073 -245.336)"/></g></svg>