<svg xmlns="http://www.w3.org/2000/svg" xmlns:xlink="http://www.w3.org/1999/xlink" width="136.016" height="91.232" viewBox="0 0 136.016 91.232"><defs><style>.a{fill:#fff;}.b{fill:none;}.c{clip-path:url(#a);}.d{opacity:0.2;}.e{clip-path:url(#b);}.f{opacity:0.4;}.g{clip-path:url(#c);}.h{opacity:0.6;}.i{clip-path:url(#d);}.j{opacity:0.8;}.k{clip-path:url(#e);}.l{clip-path:url(#h);}.m{clip-path:url(#i);}</style><clipPath id="a"><rect class="b" width="136.016" height="91.232"/></clipPath><clipPath id="b"><rect class="a" width="2.695" height="2.695"/></clipPath><clipPath id="c"><rect class="a" width="5.601" height="5.602"/></clipPath><clipPath id="d"><rect class="a" width="8.506" height="8.507"/></clipPath><clipPath id="e"><rect class="a" width="11.413" height="11.413"/></clipPath><clipPath id="h"><rect class="a" width="8.507" height="8.507"/></clipPath><clipPath id="i"><rect class="a" width="11.413" height="11.412"/></clipPath></defs><g class="c"><path class="a" d="M223.1,158.353a1.347,1.347,0,1,0-1.637.975,1.346,1.346,0,0,0,1.637-.975" transform="translate(-142.033 -155.448)"/><path class="a" d="M208.482,158.052a2.8,2.8,0,1,0-3.154,2.394,2.8,2.8,0,0,0,3.154-2.394" transform="translate(-136.419 -154.871)"/><path class="a" d="M189.72,161.265a4.253,4.253,0,1,0-4.361,4.142,4.254,4.254,0,0,0,4.361-4.142" transform="translate(-129.477 -155.521)"/><path class="a" d="M169.146,171.158a5.706,5.706,0,1,0-5.209,6.163,5.705,5.705,0,0,0,5.209-6.163" transform="translate(-121.969 -158.41)"/><path class="a" d="M140.746,197.647a7.159,7.159,0,1,0-8.383-5.677,7.159,7.159,0,0,0,8.383,5.677" transform="translate(-113.802 -164.018)"/><g class="d" transform="translate(1.508 80.234)"><g transform="translate(0 0)"><g class="e"><path class="a" d="M109.059,275.508a1.347,1.347,0,1,0-1.662-.93,1.348,1.348,0,0,0,1.662.93" transform="translate(-107.346 -272.864)"/></g></g></g><g class="f" transform="translate(0 68.303)"><g class="g"><path class="a" d="M110.691,257.664a2.8,2.8,0,1,0-2.307,3.218,2.8,2.8,0,0,0,2.307-3.218" transform="translate(-105.128 -255.318)"/></g></g><g class="h" transform="translate(1.023 53.48)"><g transform="translate(0)"><g class="i"><path class="a" d="M115.133,237.548a4.253,4.253,0,1,0-4.024,4.47,4.254,4.254,0,0,0,4.024-4.47" transform="translate(-106.632 -233.519)"/></g></g></g><g class="j" transform="translate(6.768 37.329)"><g transform="translate(0)"><g class="k"><path class="a" d="M126.484,215.8a5.706,5.706,0,1,0-6.021,5.373,5.706,5.706,0,0,0,6.021-5.373" transform="translate(-115.081 -209.767)"/></g></g></g><path class="a" d="M303.4,197.481a1.347,1.347,0,1,0-1.9-.173,1.347,1.347,0,0,0,1.9.173" transform="translate(-167.871 -167.744)"/><path class="a" d="M291.216,188.916a2.8,2.8,0,1,0-3.958.082,2.8,2.8,0,0,0,3.958-.082" transform="translate(-163.136 -164.249)"/><path class="a" d="M273.616,180.756a4.253,4.253,0,1,0-5.962.788,4.254,4.254,0,0,0,5.962-.788" transform="translate(-156.605 -160.965)"/><path class="a" d="M250.624,176.939a5.706,5.706,0,1,0-7.837,1.925,5.705,5.705,0,0,0,7.837-1.925" transform="translate(-148.301 -159.161)"/><path class="a" d="M211.545,181.948a7.159,7.159,0,1,0-3.444-9.52,7.159,7.159,0,0,0,3.444,9.52" transform="translate(-137.864 -159.17)"/><g class="d" transform="translate(24.66 46.066)"><g class="e"><path class="a" d="M142.275,225.228a1.347,1.347,0,1,0-.8-1.73,1.347,1.347,0,0,0,.8,1.73" transform="translate(-141.393 -222.616)"/></g></g><g class="f" transform="translate(29.321 36.104)"><g class="g"><path class="a" d="M153.55,212.022a2.8,2.8,0,1,0-3.758,1.247,2.8,2.8,0,0,0,3.758-1.247" transform="translate(-148.248 -207.966)"/></g></g><g class="h" transform="translate(37.73 25.289)"><g transform="translate(0)"><g class="l"><path class="a" d="M168.435,198.631a4.253,4.253,0,1,0-5.883,1.251,4.253,4.253,0,0,0,5.883-1.251" transform="translate(-160.614 -192.061)"/></g></g></g><g class="j" transform="translate(50.74 16.176)"><g transform="translate(0)"><g class="m"><path class="a" d="M189.871,187.977a5.706,5.706,0,1,0-8.029.807,5.705,5.705,0,0,0,8.029-.807" transform="translate(-179.747 -178.66)"/></g></g></g><path class="a" d="M170.111,253.2h.1a1.6,1.6,0,0,0,1.435-.9L186.1,221.914h-3.716L170.154,247.8l-12.318-25.89H154.12l14.546,30.38a1.606,1.606,0,0,0,1.445.908" transform="translate(-120.806 -176.325)"/><rect class="a" width="3.302" height="31.321" transform="translate(69.006 45.589)"/><path class="a" d="M232.773,253.2h.1a1.6,1.6,0,0,0,1.435-.9l14.456-30.389H245.05L232.817,247.8,220.5,221.914h-3.716L231.328,252.3a1.607,1.607,0,0,0,1.445.907" transform="translate(-140.859 -176.325)"/><path class="a" d="M253.192,253.25l3.193-6.733h18.166l3.193,6.733h3.716l-14.5-30.38a1.61,1.61,0,0,0-1.442-.907h-.1a1.6,1.6,0,0,0-1.437.9l-14.5,30.389Zm12.276-25.89,7.517,15.854H257.95Z" transform="translate(-151.321 -176.341)"/><path class="a" d="M179.148,276.752a2.722,2.722,0,0,0-1.429.384,2.212,2.212,0,0,0-.633.553l-.013-.814h-1.108l.007.131c.034.686.052,1.2.052,1.515v6.584H177.1v-3.168a2.076,2.076,0,0,0,.625.5,2.944,2.944,0,0,0,1.412.335,2.69,2.69,0,0,0,2.066-.841,3.435,3.435,0,0,0,0-4.339,2.679,2.679,0,0,0-2.056-.836m1.729,3.016a2.368,2.368,0,0,1-.483,1.561,1.646,1.646,0,0,1-1.345.565,1.909,1.909,0,0,1-1.445-.547,2.1,2.1,0,0,1-.524-1.5,2.38,2.38,0,0,1,.534-1.614,1.8,1.8,0,0,1,1.44-.6,1.63,1.63,0,0,1,1.34.57,2.4,2.4,0,0,1,.483,1.572" transform="translate(-127.797 -193.874)"/><path class="a" d="M190.346,275.594a2.965,2.965,0,0,0-1.38.318,2.437,2.437,0,0,0-.705.537v-3.267h-1.075V281.5h1.075v-3.484a1.338,1.338,0,0,1,.6-1.062,2.221,2.221,0,0,1,1.408-.483,1.254,1.254,0,0,1,1,.348,1.741,1.741,0,0,1,.3,1.134V281.5h1.074v-3.618a2.2,2.2,0,0,0-.645-1.7,2.36,2.36,0,0,0-1.654-.589" transform="translate(-131.388 -192.732)"/><path class="a" d="M200.031,281.429l-1.839-4.495h-1.145l2.446,5.677-.1.241v0a2.368,2.368,0,0,1-1.736,1.35l-.158.044.445.749.087-.017a3.072,3.072,0,0,0,1.514-.741,3.683,3.683,0,0,0,.917-1.333l2.487-5.972h-1.1Z" transform="translate(-134.543 -193.933)"/><path class="a" d="M210.971,279.887a2.457,2.457,0,0,0-.52-.311,6.463,6.463,0,0,0-.7-.254l-.658-.192c-.12-.035-.191-.055-.226-.069a2.3,2.3,0,0,1-.743-.32.526.526,0,0,1-.156-.43.558.558,0,0,1,.3-.511h0a1.987,1.987,0,0,1,1-.2,3.423,3.423,0,0,1,1.535.357l.117.058.337-.771-.1-.056a3.828,3.828,0,0,0-1.957-.463,4.063,4.063,0,0,0-.881.089,2.5,2.5,0,0,0-.723.275,1.36,1.36,0,0,0-.513.514,1.471,1.471,0,0,0-.184.736,1.3,1.3,0,0,0,.405,1.026,3.123,3.123,0,0,0,1.147.572l.864.246a3.132,3.132,0,0,1,.9.381.567.567,0,0,1,.21.488c0,.2,0,.8-1.266.8a3.271,3.271,0,0,1-1.8-.566l-.123-.079-.358.8.084.059a3.212,3.212,0,0,0,.3.185,4.589,4.589,0,0,0,.456.213,3.459,3.459,0,0,0,.682.2,4.265,4.265,0,0,0,.813.075,3.475,3.475,0,0,0,.834-.095,2.479,2.479,0,0,0,.709-.294,1.465,1.465,0,0,0,.517-.56,1.709,1.709,0,0,0,.188-.809,1.575,1.575,0,0,0-.116-.627,1.19,1.19,0,0,0-.372-.471" transform="translate(-137.688 -193.867)"/><rect class="a" width="1.075" height="5.764" transform="translate(75.385 83.001)"/><rect class="a" width="1.069" height="1.003" transform="translate(75.391 80.691)"/><path class="a" d="M223.181,276.728a3.242,3.242,0,0,0-2.335.83,2.926,2.926,0,0,0-.866,2.2,2.863,2.863,0,0,0,.863,2.164,3.716,3.716,0,0,0,4.655,0,2.87,2.87,0,0,0,.86-2.164,2.95,2.95,0,0,0-.854-2.2,3.2,3.2,0,0,0-2.324-.83m-.006,5.142a2.036,2.036,0,0,1-1.541-.568,2.152,2.152,0,0,1-.544-1.542,2.227,2.227,0,0,1,.545-1.58,2.329,2.329,0,0,1,3.071,0,2.236,2.236,0,0,1,.542,1.58,2.157,2.157,0,0,1-.541,1.542,2.017,2.017,0,0,1-1.532.568" transform="translate(-141.882 -193.867)"/><path class="a" d="M233.662,281a1.84,1.84,0,0,1-.383-.066.66.66,0,0,1-.229-.1.428.428,0,0,1-.114-.17.953.953,0,0,1-.067-.277c-.01-.109-.014-.252-.014-.43v-3.088h1.491v-.755h-1.491v-1.758l-1.064.288v1.47h-1.175v.755h1.163v3.055a5.386,5.386,0,0,0,.025.562,2.292,2.292,0,0,0,.1.466,1.034,1.034,0,0,0,.23.407,1.512,1.512,0,0,0,.377.273,1.916,1.916,0,0,0,.571.18,5.754,5.754,0,0,0,.771.065l.188,0,.2,0h.125v-.864h-.125q-.352,0-.576-.015" transform="translate(-145.286 -193.105)"/><path class="a" d="M241.659,275.594a2.964,2.964,0,0,0-1.379.318,2.461,2.461,0,0,0-.706.537v-3.267H238.5V281.5h1.074v-3.484a1.337,1.337,0,0,1,.6-1.062,2.218,2.218,0,0,1,1.408-.483,1.251,1.251,0,0,1,1,.348,1.74,1.74,0,0,1,.3,1.134V281.5h1.075v-3.618a2.2,2.2,0,0,0-.645-1.7,2.36,2.36,0,0,0-1.655-.589" transform="translate(-147.809 -192.732)"/><path class="a" d="M251.907,276.728a2.887,2.887,0,0,0-3.054,3.043,2.825,2.825,0,0,0,.876,2.164,3.3,3.3,0,0,0,2.33.809,4.336,4.336,0,0,0,1.261-.185,3.56,3.56,0,0,0,1.076-.527l.084-.062-.38-.775-.12.087a3.158,3.158,0,0,1-1.892.588,2.2,2.2,0,0,1-1.557-.54,1.907,1.907,0,0,1-.572-1.37h4.687l.011-.114c0-.037.006-.138.006-.3a2.857,2.857,0,0,0-.734-2.043,2.664,2.664,0,0,0-2.023-.775m-1.9,2.451a1.879,1.879,0,0,1,.6-1.125,1.929,1.929,0,0,1,1.323-.463,1.686,1.686,0,0,1,1.231.454,1.816,1.816,0,0,1,.515,1.134Z" transform="translate(-151.122 -193.867)"/><path class="a" d="M262.506,276.752a2.078,2.078,0,0,0-1.078.281,1.663,1.663,0,0,0-.5.459l-.022-.616h-1.115l.057.9c.012.221.017.413.017.576v4.289h1.08v-3.161a1.946,1.946,0,0,1,.416-1.365,1.757,1.757,0,0,1,1.7-.377l.146.029.024-.938-.1-.02a3.408,3.408,0,0,0-.626-.056" transform="translate(-154.623 -193.874)"/><path class="a" d="M271.1,277.565a2.294,2.294,0,0,0-.619-.508,2.585,2.585,0,0,0-1.3-.328,2.887,2.887,0,0,0-2.159.838,2.98,2.98,0,0,0-.813,2.156,3.362,3.362,0,0,0,.347,1.543,2.619,2.619,0,0,0,1.032,1.083,3.1,3.1,0,0,0,1.582.4,2.571,2.571,0,0,0,1.315-.328,2.171,2.171,0,0,0,.612-.528v.743h1.076v-5.763H271.1Zm-.481.6a2.272,2.272,0,0,1,.5,1.533,2.418,2.418,0,0,1-.488,1.6,1.679,1.679,0,0,1-1.375.573,1.8,1.8,0,0,1-1.441-.585,2.32,2.32,0,0,1-.521-1.578,2.218,2.218,0,0,1,.517-1.533,1.835,1.835,0,0,1,1.439-.571,1.7,1.7,0,0,1,1.37.566" transform="translate(-156.675 -193.867)"/><path class="a" d="M281.305,276.752a2.721,2.721,0,0,0-1.43.384,2.22,2.22,0,0,0-.633.553l-.012-.814h-1.108l.007.131c.034.69.052,1.2.052,1.515v6.584h1.074v-3.169a2.079,2.079,0,0,0,.626.5,2.945,2.945,0,0,0,1.413.335,2.686,2.686,0,0,0,2.065-.841,3.434,3.434,0,0,0,0-4.339,2.68,2.68,0,0,0-2.056-.836m1.729,3.016a2.368,2.368,0,0,1-.482,1.561,1.648,1.648,0,0,1-1.346.565,1.886,1.886,0,0,1-1.444-.547,2.1,2.1,0,0,1-.524-1.5,2.379,2.379,0,0,1,.534-1.614,1.8,1.8,0,0,1,1.44-.6,1.629,1.629,0,0,1,1.34.57,2.4,2.4,0,0,1,.483,1.572" transform="translate(-160.489 -193.874)"/><path class="a" d="M292.94,276.934l-1.817,4.495-1.839-4.495h-1.145l2.445,5.677-.1.242a2.366,2.366,0,0,1-1.735,1.35l-.158.044.444.749.087-.017a3.069,3.069,0,0,0,1.514-.741,3.68,3.68,0,0,0,.917-1.333l2.487-5.972Z" transform="translate(-163.694 -193.933)"/></g></svg>